<?xml version="1.0" encoding="UTF-8"?>
<svg width="400" height="400" viewBox="0 0 400 400" xmlns="http://www.w3.org/2000/svg">
  <!-- Outer circle -->
  <circle cx="200" cy="200" r="180" fill="#E8E8E8" stroke="#333" stroke-width="2"/>
  
  <!-- Middle ring -->
  <circle cx="200" cy="200" r="140" fill="#DDA0DD"/>
  
  <!-- Inner ring -->
  <circle cx="200" cy="200" r="100" fill="#87CEEB"/>
  
  <!-- Core -->
  <circle cx="200" cy="200" r="60" fill="#FFB6C1"/>
  
  <!-- Center -->
  <circle cx="200" cy="200" r="30" fill="#FF6347"/>
  
  <!-- Petals Layer 1 -->
  <ellipse cx="200" cy="80" rx="20" ry="40" fill="#9370DB"/>
  <ellipse cx="200" cy="80" rx="20" ry="40" fill="#9370DB" transform="rotate(45 200 200)"/>
  <ellipse cx="200" cy="80" rx="20" ry="40" fill="#9370DB" transform="rotate(90 200 200)"/>
  <ellipse cx="200" cy="80" rx="20" ry="40" fill="#9370DB" transform="rotate(135 200 200)"/>
  <ellipse cx="200" cy="80" rx="20" ry="40" fill="#9370DB" transform="rotate(180 200 200)"/>
  <ellipse cx="200" cy="80" rx="20" ry="40" fill="#9370DB" transform="rotate(225 200 200)"/>
  <ellipse cx="200" cy="80" rx="20" ry="40" fill="#9370DB" transform="rotate(270 200 200)"/>
  <ellipse cx="200" cy="80" rx="20" ry="40" fill="#9370DB" transform="rotate(315 200 200)"/>
  
  <!-- Dots -->
  <circle cx="200" cy="50" r="8" fill="#FFD700"/>
  <circle cx="200" cy="50" r="8" fill="#FFD700" transform="rotate(45 200 200)"/>
  <circle cx="200" cy="50" r="8" fill="#FFD700" transform="rotate(90 200 200)"/>
  <circle cx="200" cy="50" r="8" fill="#FFD700" transform="rotate(135 200 200)"/>
  <circle cx="200" cy="50" r="8" fill="#FFD700" transform="rotate(180 200 200)"/>
  <circle cx="200" cy="50" r="8" fill="#FFD700" transform="rotate(225 200 200)"/>
  <circle cx="200" cy="50" r="8" fill="#FFD700" transform="rotate(270 200 200)"/>
  <circle cx="200" cy="50" r="8" fill="#FFD700" transform="rotate(315 200 200)"/>
</svg>